<?xml version="1.0" encoding="UTF-8"?>
<svg version="1.1" xmlns="http://www.w3.org/2000/svg" width="512" height="512">
<path d="M0 0 C3.91634336 1.5999031 7.52495901 3.64142579 11.1875 5.75 C12.24267822 6.33982666 13.29785645 6.92965332 14.38500977 7.53735352 C17.6003243 9.3406784 20.80137552 11.16726648 24 13 C25.78620272 14.01477299 27.57264535 15.02912384 29.359375 16.04296875 C32.78007866 17.98951904 36.19430706 19.94693914 39.60546875 21.91015625 C45.4628588 25.2749939 51.35395827 28.57847501 57.25 31.875 C58.29518799 32.45942871 59.34037598 33.04385742 60.41723633 33.64599609 C62.54526011 34.8353922 64.67343469 36.02451853 66.80175781 37.21337891 C97.33842381 54.27195309 97.33842381 54.27195309 112.375 62.82421875 C116.22924597 65.01247499 120.10563519 67.15355089 124 69.26953125 C124.96583008 69.80175293 125.93166016 70.33397461 126.92675781 70.88232422 C128.75739361 71.8907253 130.59496938 72.88666793 132.44042969 73.86767578 C137.27966933 76.55582484 140.21825754 78.47280744 142 84 C141.89354221 89.32288939 140.99665596 90.00334404 137 94 C133.04 94 129.08 94 125 94 C125 166.93 125 239.86 125 315 C127.64 315 130.28 315 133 315 C133 320.94 133 326.88 133 333 C121.78 333 110.56 333 99 333 C99 392.07 99 451.14 99 512 C93.06 512 87.12 512 81 512 C81 502.1 81 492.2 81 482 C79.68 481.34 78.36 480.68 77 480 C75.83657924 479.24859301 74.68954361 478.47132027 73.55859375 477.671875 C72.57451538 476.97783569 72.57451538 476.97783569 71.57055664 476.26977539 C70.86664795 475.76824951 70.16273926 475.26672363 69.4375 474.75 C68.69298584 474.22204834 67.94847168 473.69409668 67.18139648 473.15014648 C60.78920288 468.59969244 54.46946652 463.95338501 48.16210938 459.28637695 C39.82585835 453.11968435 31.41555826 447.05775877 23 441 C19.79082536 438.68866505 16.58270821 436.37586948 13.375 434.0625 C12.65304443 433.54292725 11.93108887 433.02335449 11.18725586 432.48803711 C6.4159459 429.04717259 1.69413136 425.54539978 -3 422 C-5.64398662 423.26575751 -8.04867577 424.63675287 -10.44140625 426.328125 C-11.42548462 427.02216431 -11.42548462 427.02216431 -12.42944336 427.73022461 C-13.13335205 428.23175049 -13.83726074 428.73327637 -14.5625 429.25 C-15.67927124 430.04192749 -15.67927124 430.04192749 -16.81860352 430.84985352 C-23.21079712 435.40030756 -29.53053348 440.04661499 -35.83789062 444.71362305 C-44.17414165 450.88031565 -52.58444174 456.94224123 -61 463 C-64.20917464 465.31133495 -67.41729179 467.62413052 -70.625 469.9375 C-71.34695557 470.45707275 -72.06891113 470.97664551 -72.81274414 471.51196289 C-73.5061792 472.01203857 -74.19961426 472.51211426 -74.9140625 473.02734375 C-75.58598633 473.51187012 -76.25791016 473.99639648 -76.95019531 474.49560547 C-79.78930078 476.57928435 -82.57247608 478.73457365 -85.34912109 480.90063477 C-87 482 -87 482 -89 482 C-89 491.9 -89 501.8 -89 512 C-94.94 512 -100.88 512 -107 512 C-107 452.93 -107 393.86 -107 333 C-121.19 333 -135.38 333 -150 333 C-150 327.06 -150 321.12 -150 315 C-144.06 315 -138.12 315 -132 315 C-132 242.07 -132 169.14 -132 94 C-136.29 94 -140.58 94 -145 94 C-149.89795918 89.10204082 -149.89795918 89.10204082 -150 84 C-148.09478201 79.09851775 -146.2238941 77.03866944 -141.609375 74.58984375 C-140.51931152 73.99937256 -139.42924805 73.40890137 -138.30615234 72.80053711 C-137.12082163 72.17942282 -135.93543612 71.55841309 -134.75 70.9375 C-133.52324678 70.27864104 -132.29750918 69.61788783 -131.07275391 68.95532227 C-128.57878217 67.60725427 -126.08124428 66.2661845 -123.58105469 64.9296875 C-118.46411439 62.18436183 -113.41983274 59.3125933 -108.375 56.4375 C-100.43083437 51.93281269 -92.47092441 47.45715815 -84.5 43 C-76.48874872 38.51970679 -68.48779097 34.02198831 -60.5 29.5 C-51.30995896 24.29763971 -42.10938462 19.11427853 -32.88110352 13.97998047 C-28.27006746 11.41178083 -23.67684102 8.82890878 -19.1484375 6.1171875 C-18.42648193 5.69083008 -17.70452637 5.26447266 -16.96069336 4.82519531 C-15.67152207 4.06043532 -14.39005161 3.28243125 -13.11938477 2.48730469 C-8.79555804 -0.05793101 -4.90105658 -1.05693284 0 0 Z M-114 94 C-114 99.28 -114 104.56 -114 110 C-41.4 110 31.2 110 106 110 C106 104.72 106 99.44 106 94 C33.4 94 -39.2 94 -114 94 Z M-6.27758789 160.26245117 C-6.75446045 160.85002197 -7.23133301 161.43759277 -7.72265625 162.04296875 C-8.25673096 162.69797363 -8.79080566 163.35297852 -9.34106445 164.02783203 C-10.19317505 165.09686768 -10.19317505 165.09686768 -11.0625 166.1875 C-11.93878052 167.27973877 -11.93878052 167.27973877 -12.83276367 168.39404297 C-30.9613286 190.30986951 -30.9613286 190.30986951 -38.0625 216.875 C-36.81053923 225.42333432 -32.38328969 233.72635448 -25.9921875 239.53515625 C-17.65538412 245.66515873 -9.22021671 247.80333581 1 247 C10.56006588 245.29851015 17.6412406 240.41391495 23.68359375 232.90625 C28.50919486 225.91843593 30.99043562 218.01880108 29.59375 209.53125 C25.18777837 192.95640434 12.71705815 178.10198518 1.83984375 165.19921875 C0 163 0 163 -1.62109375 160.70703125 C-2.30365234 159.86205078 -2.30365234 159.86205078 -3 159 C-5.06224913 158.76570651 -5.06224913 158.76570651 -6.27758789 160.26245117 Z M-114 299 C-114 304.28 -114 309.56 -114 315 C-41.4 315 31.2 315 106 315 C106 309.72 106 304.44 106 299 C33.4 299 -39.2 299 -114 299 Z M-89 333 C-89.45874186 336.84729014 -89.45874186 336.84729014 -87.63330078 338.44116211 C-86.99376465 338.88210205 -86.35422852 339.32304199 -85.6953125 339.77734375 C-84.97609619 340.28386475 -84.25687988 340.79038574 -83.51586914 341.31225586 C-82.72688232 341.84858643 -81.93789551 342.38491699 -81.125 342.9375 C-79.45941654 344.10385416 -77.79405799 345.27052956 -76.12890625 346.4375 C-74.8452417 347.32695312 -74.8452417 347.32695312 -73.53564453 348.234375 C-69.6768271 350.92135436 -65.86977863 353.67821645 -62.0625 356.4375 C-61.32402832 356.97044678 -60.58555664 357.50339355 -59.82470703 358.05249023 C-53.55932454 362.57778974 -47.33924089 367.16326043 -41.12329102 371.75610352 C-34.85914215 376.37962662 -28.5685177 380.9654067 -22.2355957 385.49438477 C-18.97736519 387.82710159 -15.74675304 390.17145939 -12.60546875 392.66015625 C-11.64253906 393.41167969 -10.67960937 394.16320312 -9.6875 394.9375 C-8.88699219 395.58589844 -8.08648437 396.23429687 -7.26171875 396.90234375 C-5.0690481 398.24231498 -5.0690481 398.24231498 -2.75 397.5859375 C1.2953119 395.25298774 4.96541027 392.50095306 8.6875 389.6875 C10.39914821 388.40936392 12.11140197 387.13203843 13.82421875 385.85546875 C14.68966309 385.20884277 15.55510742 384.5622168 16.44677734 383.89599609 C20.26930188 381.05742987 24.13280324 378.27722956 28 375.5 C34.19706784 371.04052939 40.35980914 366.53744811 46.5 362 C54.31188829 356.22806151 62.16606444 350.517259 70.046875 344.83984375 C70.70494141 344.36144043 71.36300781 343.88303711 72.04101562 343.39013672 C73.36357063 342.45162373 74.707118 341.54210938 76.06835938 340.66064453 C78.24311415 339.27136735 78.24311415 339.27136735 81 337 C81 335.68 81 334.36 81 333 C24.9 333 -31.2 333 -89 333 Z M-89 359 C-89 392.33 -89 425.66 -89 460 C-83.1249726 456.08331506 -77.33100742 452.14605443 -71.625 448 C-70.85607422 447.443125 -70.08714844 446.88625 -69.29492188 446.3125 C-62.88350807 441.66098035 -56.50536804 436.96468464 -50.13867188 432.25219727 C-46.10602688 429.27141993 -42.05814873 426.31583924 -37.9765625 423.40234375 C-37.16251953 422.82033203 -36.34847656 422.23832031 -35.50976562 421.63867188 C-33.96710892 420.53821816 -32.42170806 419.44159684 -30.87304688 418.34960938 C-26.87570115 415.49647157 -23.35761263 412.58803703 -20 409 C-31.22494791 400.51247127 -42.5703572 392.2092703 -54 384 C-57.04301774 381.81437132 -60.08491201 379.62720227 -63.125 377.4375 C-63.86016846 376.90817871 -64.59533691 376.37885742 -65.3527832 375.83349609 C-71.34352941 371.50578156 -77.26071286 367.08420614 -83.13916016 362.60522461 C-85.80970958 360.13553483 -85.80970958 360.13553483 -89 359 Z M75.28125 362.60546875 C74.52328125 363.17007812 73.7653125 363.7346875 72.984375 364.31640625 C72.16453125 364.93386719 71.3446875 365.55132812 70.5 366.1875 C68.76099504 367.48384915 67.02139806 368.77940444 65.28125 370.07421875 C64.39695312 370.73341309 63.51265625 371.39260742 62.6015625 372.07177734 C58.76095532 374.9183535 54.88258886 377.71110423 51 380.5 C43.84794435 385.64707946 36.74332968 390.85587271 29.6550293 396.09033203 C23.78991858 400.4213203 17.90675337 404.72589981 12 409 C15.99491684 413.2690778 20.35519259 416.5742273 25.125 419.9375 C26.74281543 421.09156817 28.35998204 422.24654632 29.9765625 423.40234375 C31.22228027 424.29155518 31.22228027 424.29155518 32.49316406 425.19873047 C36.52342977 428.09464987 40.51109849 431.04750353 44.5 434 C50.85541195 438.69386206 57.22600558 443.36569055 63.625 448 C64.33462891 448.515625 65.04425781 449.03125 65.77539062 449.5625 C70.77699207 453.1760747 75.85682204 456.57121469 81 460 C81 427 81 394 81 360 C78.31418419 360 77.42159132 360.99841372 75.28125 362.60546875 Z " fill="#006CF0" transform="translate(260,0)"/>
<path d="M0 0 C73.26 0 146.52 0 222 0 C222 50.82 222 101.64 222 154 C148.74 154 75.48 154 0 154 C0 103.18 0 52.36 0 0 Z M108.72241211 32.26245117 C108.24553955 32.85002197 107.76866699 33.43759277 107.27734375 34.04296875 C106.74326904 34.69797363 106.20919434 35.35297852 105.65893555 36.02783203 C104.80682495 37.09686768 104.80682495 37.09686768 103.9375 38.1875 C103.06121948 39.27973877 103.06121948 39.27973877 102.16723633 40.39404297 C84.0386714 62.30986951 84.0386714 62.30986951 76.9375 88.875 C78.18946077 97.42333432 82.61671031 105.72635448 89.0078125 111.53515625 C97.34461588 117.66515873 105.77978329 119.80333581 116 119 C125.56006588 117.29851015 132.6412406 112.41391495 138.68359375 104.90625 C143.50919486 97.91843593 145.99043562 90.01880108 144.59375 81.53125 C140.18777837 64.95640434 127.71705815 50.10198518 116.83984375 37.19921875 C115 35 115 35 113.37890625 32.70703125 C112.69634766 31.86205078 112.69634766 31.86205078 112 31 C109.93775087 30.76570651 109.93775087 30.76570651 108.72241211 32.26245117 Z " fill="#77B8EB" transform="translate(145,128)"/>
<path d="M0 0 C0.95334229 0.54043945 1.90668457 1.08087891 2.88891602 1.63769531 C4.50950928 2.54757202 4.50950928 2.54757202 6.1628418 3.47583008 C7.32293029 4.138994 8.48292134 4.80232839 9.64282227 5.46582031 C10.85444075 6.15014482 12.06652452 6.83364613 13.27905273 7.51635742 C16.34901999 9.2474245 19.41320182 10.98845758 22.47589111 12.73236084 C25.05284593 14.19777369 27.63488922 15.65412038 30.21704102 17.11035156 C33.9695163 19.22710759 37.71915064 21.34877064 41.46704102 23.47363281 C46.4636472 26.30254941 51.47647508 29.10162077 56.4921875 31.89648438 C66.29588218 37.3631552 76.05913521 42.89468781 85.76782227 48.52832031 C86.81574951 49.13345459 87.86367676 49.73858887 88.94335938 50.36206055 C89.89734619 50.91837158 90.85133301 51.47468262 91.83422852 52.04785156 C92.68057861 52.54003174 93.52692871 53.03221191 94.39892578 53.53930664 C94.99503662 53.92755615 95.59114746 54.31580566 96.20532227 54.71582031 C96.20532227 55.04582031 96.20532227 55.37582031 96.20532227 55.71582031 C28.22532227 55.71582031 -39.75467773 55.71582031 -109.79467773 55.71582031 C-106.88914197 52.81028454 -104.54496338 51.32352826 -100.96655273 49.37988281 C-100.38981812 49.06444519 -99.8130835 48.74900757 -99.21887207 48.42401123 C-97.97749463 47.74567263 -96.73485454 47.06964059 -95.49108887 46.39569092 C-92.18032242 44.60139877 -88.87891117 42.79001139 -85.57592773 40.98144531 C-84.91054993 40.61775848 -84.24517212 40.25407166 -83.55963135 39.87936401 C-77.69140069 36.66900126 -71.86109401 33.39412908 -66.04467773 30.09082031 C-57.06067322 24.99283566 -48.05928791 19.92726011 -39.03076172 14.90844727 C-33.8985417 12.0481631 -28.80271885 9.14475713 -23.75952148 6.12988281 C-22.80577637 5.565354 -21.85203125 5.0008252 -20.86938477 4.41918945 C-19.07678072 3.35430597 -17.29200983 2.27608161 -15.5168457 1.18237305 C-14.71778809 0.71001221 -13.91873047 0.23765137 -13.09545898 -0.24902344 C-12.40621338 -0.66788818 -11.71696777 -1.08675293 -11.00683594 -1.51831055 C-6.98114729 -2.9120403 -3.75731105 -1.7265184 0 0 Z " fill="#76B8EB" transform="translate(262.794677734375,21.2841796875)"/>
<path d="M0 0 C5.57567082 2.09205985 9.48105497 7.45115346 13.30078125 11.86328125 C14.06519531 12.73855469 14.82960938 13.61382812 15.6171875 14.515625 C32.4258512 34.51162028 50.70908854 57.6653468 49.30078125 84.86328125 C48.91922905 87.79646379 48.26728085 90.01210742 47.30078125 92.86328125 C47.04425781 93.64960938 46.78773438 94.4359375 46.5234375 95.24609375 C41.28495663 109.94981259 30.06081142 118.93626998 16.4375 125.515625 C5.88313877 130.05018866 -9.24319966 129.71136307 -19.94921875 125.80078125 C-34.09830012 119.24343936 -44.73433134 109.21025525 -50.51171875 94.61328125 C-55.283153 79.54559415 -52.82204541 66.71533361 -45.71484375 52.98828125 C-38.04647819 38.62768182 -28.37104329 26.0924381 -17.69921875 13.86328125 C-17.01472656 13.06664062 -16.33023438 12.27 -15.625 11.44921875 C-14.48549656 10.12927333 -13.3356551 8.81812275 -12.171875 7.51953125 C-10.82514394 6.00490533 -9.53978179 4.43628191 -8.26171875 2.86328125 C-5.5184109 0.72216293 -3.53399862 -0.23293776 0 0 Z M-3.97680664 24.12573242 C-4.4536792 24.71330322 -4.93055176 25.30087402 -5.421875 25.90625 C-5.95594971 26.56125488 -6.49002441 27.21625977 -7.0402832 27.89111328 C-7.8923938 28.96014893 -7.8923938 28.96014893 -8.76171875 30.05078125 C-9.63799927 31.14302002 -9.63799927 31.14302002 -10.53198242 32.25732422 C-28.66054735 54.17315076 -28.66054735 54.17315076 -35.76171875 80.73828125 C-34.50975798 89.28661557 -30.08250844 97.58963573 -23.69140625 103.3984375 C-15.35460287 109.52843998 -6.91943546 111.66661706 3.30078125 110.86328125 C12.86084713 109.1617914 19.94202185 104.2771962 25.984375 96.76953125 C30.80997611 89.78171718 33.29121687 81.88208233 31.89453125 73.39453125 C27.48855962 56.81968559 15.0178394 41.96526643 4.140625 29.0625 C2.30078125 26.86328125 2.30078125 26.86328125 0.6796875 24.5703125 C-0.00287109 23.72533203 -0.00287109 23.72533203 -0.69921875 22.86328125 C-2.76146788 22.62898776 -2.76146788 22.62898776 -3.97680664 24.12573242 Z " fill="#006DF0" transform="translate(257.69921875,136.13671875)"/>
<path d="M0 0 C3.14001126 2.80055058 4.10280144 5.11076754 4.8125 9.125 C5.18051949 11.19404763 5.18051949 11.19404763 6 13 C9.26490162 15.0063988 9.26490162 15.0063988 13 16 C16.89457904 17.3276974 19.07381269 18.24900366 21 22 C21.61764566 26.24631391 21.45287458 28.26603086 19.1875 31.9375 C14.45449805 35.00003067 10.48226038 34.90391156 5 34 C-2.7023384 31.49508479 -8.19254325 27.2199481 -12.02734375 20.08984375 C-14.12605554 15.22508785 -14.91990882 10.24947969 -14 5 C-10.3277911 -1.07813887 -6.72544478 -1.65186363 0 0 Z " fill="#006CF0" transform="translate(244,205)"/>
</svg>
